<mxfile host="Electron" modified="2025-09-25T05:12:15.136Z" agent="Mozilla/5.0 (Windows NT 10.0; Win64; x64) AppleWebKit/537.36 (KHTML, like Gecko) draw.io/24.2.5 Chrome/120.0.6099.109 Electron/28.1.0 Safari/537.36" etag="zC-1vW6rLEVSj1535Jgn" version="24.2.5" type="device">
  <diagram id="C5RBs43oDa-KdzZeNtuy" name="Page-1">
    <mxGraphModel dx="1216" dy="745" grid="1" gridSize="10" guides="1" tooltips="1" connect="1" arrows="1" fold="1" page="1" pageScale="1" pageWidth="827" pageHeight="1169" math="0" shadow="0">
      <root>
        <mxCell id="WIyWlLk6GJQsqaUBKTNV-0" />
        <mxCell id="WIyWlLk6GJQsqaUBKTNV-1" parent="WIyWlLk6GJQsqaUBKTNV-0" />
        <mxCell id="_LFYc6KTlpvNx05L0n6W-2" value="" style="edgeStyle=orthogonalEdgeStyle;rounded=0;orthogonalLoop=1;jettySize=auto;html=1;" parent="WIyWlLk6GJQsqaUBKTNV-1" source="_LFYc6KTlpvNx05L0n6W-0" target="_LFYc6KTlpvNx05L0n6W-1" edge="1">
          <mxGeometry relative="1" as="geometry" />
        </mxCell>
        <mxCell id="_LFYc6KTlpvNx05L0n6W-0" value="INICIO&lt;br&gt;REGISTRO DE SECRETARIAS" style="ellipse;whiteSpace=wrap;html=1;aspect=fixed;" parent="WIyWlLk6GJQsqaUBKTNV-1" vertex="1">
          <mxGeometry x="351" y="20" width="123" height="123" as="geometry" />
        </mxCell>
        <mxCell id="_LFYc6KTlpvNx05L0n6W-4" value="" style="edgeStyle=orthogonalEdgeStyle;rounded=0;orthogonalLoop=1;jettySize=auto;html=1;" parent="WIyWlLk6GJQsqaUBKTNV-1" source="_LFYc6KTlpvNx05L0n6W-1" target="_LFYc6KTlpvNx05L0n6W-3" edge="1">
          <mxGeometry relative="1" as="geometry" />
        </mxCell>
        <mxCell id="_LFYc6KTlpvNx05L0n6W-1" value="Se solicita nombres" style="rounded=1;whiteSpace=wrap;html=1;" parent="WIyWlLk6GJQsqaUBKTNV-1" vertex="1">
          <mxGeometry x="353" y="230" width="120" height="60" as="geometry" />
        </mxCell>
        <mxCell id="_LFYc6KTlpvNx05L0n6W-6" value="" style="edgeStyle=orthogonalEdgeStyle;rounded=0;orthogonalLoop=1;jettySize=auto;html=1;" parent="WIyWlLk6GJQsqaUBKTNV-1" source="_LFYc6KTlpvNx05L0n6W-3" target="_LFYc6KTlpvNx05L0n6W-5" edge="1">
          <mxGeometry relative="1" as="geometry" />
        </mxCell>
        <mxCell id="_LFYc6KTlpvNx05L0n6W-3" value="Se solicita apellido paterno" style="whiteSpace=wrap;html=1;rounded=1;" parent="WIyWlLk6GJQsqaUBKTNV-1" vertex="1">
          <mxGeometry x="353" y="310" width="120" height="60" as="geometry" />
        </mxCell>
        <mxCell id="_LFYc6KTlpvNx05L0n6W-8" value="" style="edgeStyle=orthogonalEdgeStyle;rounded=0;orthogonalLoop=1;jettySize=auto;html=1;" parent="WIyWlLk6GJQsqaUBKTNV-1" source="_LFYc6KTlpvNx05L0n6W-5" target="_LFYc6KTlpvNx05L0n6W-7" edge="1">
          <mxGeometry relative="1" as="geometry" />
        </mxCell>
        <mxCell id="_LFYc6KTlpvNx05L0n6W-5" value="Se solicita apellido materno" style="whiteSpace=wrap;html=1;rounded=1;" parent="WIyWlLk6GJQsqaUBKTNV-1" vertex="1">
          <mxGeometry x="353" y="390" width="120" height="60" as="geometry" />
        </mxCell>
        <mxCell id="_LFYc6KTlpvNx05L0n6W-39" value="" style="edgeStyle=orthogonalEdgeStyle;rounded=0;orthogonalLoop=1;jettySize=auto;html=1;" parent="WIyWlLk6GJQsqaUBKTNV-1" source="_LFYc6KTlpvNx05L0n6W-7" target="_LFYc6KTlpvNx05L0n6W-38" edge="1">
          <mxGeometry relative="1" as="geometry" />
        </mxCell>
        <mxCell id="_LFYc6KTlpvNx05L0n6W-7" value="Se solicita fecha de nacimiento" style="whiteSpace=wrap;html=1;rounded=1;" parent="WIyWlLk6GJQsqaUBKTNV-1" vertex="1">
          <mxGeometry x="353" y="490" width="120" height="60" as="geometry" />
        </mxCell>
        <mxCell id="_LFYc6KTlpvNx05L0n6W-12" value="" style="edgeStyle=orthogonalEdgeStyle;rounded=0;orthogonalLoop=1;jettySize=auto;html=1;" parent="WIyWlLk6GJQsqaUBKTNV-1" source="_LFYc6KTlpvNx05L0n6W-9" target="_LFYc6KTlpvNx05L0n6W-11" edge="1">
          <mxGeometry relative="1" as="geometry" />
        </mxCell>
        <mxCell id="_LFYc6KTlpvNx05L0n6W-9" value="Se solicita CURP" style="whiteSpace=wrap;html=1;rounded=1;" parent="WIyWlLk6GJQsqaUBKTNV-1" vertex="1">
          <mxGeometry x="353" y="670" width="120" height="60" as="geometry" />
        </mxCell>
        <mxCell id="_LFYc6KTlpvNx05L0n6W-14" value="" style="edgeStyle=orthogonalEdgeStyle;rounded=0;orthogonalLoop=1;jettySize=auto;html=1;" parent="WIyWlLk6GJQsqaUBKTNV-1" source="_LFYc6KTlpvNx05L0n6W-11" target="_LFYc6KTlpvNx05L0n6W-13" edge="1">
          <mxGeometry relative="1" as="geometry" />
        </mxCell>
        <mxCell id="_LFYc6KTlpvNx05L0n6W-15" value="SI" style="edgeLabel;html=1;align=center;verticalAlign=middle;resizable=0;points=[];" parent="_LFYc6KTlpvNx05L0n6W-14" vertex="1" connectable="0">
          <mxGeometry x="-0.3985" y="3" relative="1" as="geometry">
            <mxPoint y="1" as="offset" />
          </mxGeometry>
        </mxCell>
        <mxCell id="_LFYc6KTlpvNx05L0n6W-17" value="" style="edgeStyle=orthogonalEdgeStyle;rounded=0;orthogonalLoop=1;jettySize=auto;html=1;" parent="WIyWlLk6GJQsqaUBKTNV-1" source="_LFYc6KTlpvNx05L0n6W-11" target="_LFYc6KTlpvNx05L0n6W-16" edge="1">
          <mxGeometry relative="1" as="geometry" />
        </mxCell>
        <mxCell id="_LFYc6KTlpvNx05L0n6W-11" value="¿Las primera letra coincide con la primera letra del apellido paterno?" style="rhombus;whiteSpace=wrap;html=1;rounded=1;" parent="WIyWlLk6GJQsqaUBKTNV-1" vertex="1">
          <mxGeometry x="323.5" y="770" width="187" height="80" as="geometry" />
        </mxCell>
        <mxCell id="_LFYc6KTlpvNx05L0n6W-19" style="edgeStyle=orthogonalEdgeStyle;rounded=0;orthogonalLoop=1;jettySize=auto;html=1;exitX=0;exitY=0.5;exitDx=0;exitDy=0;entryX=0.5;entryY=1;entryDx=0;entryDy=0;" parent="WIyWlLk6GJQsqaUBKTNV-1" source="_LFYc6KTlpvNx05L0n6W-13" target="_LFYc6KTlpvNx05L0n6W-16" edge="1">
          <mxGeometry relative="1" as="geometry" />
        </mxCell>
        <mxCell id="_LFYc6KTlpvNx05L0n6W-21" value="NO" style="edgeLabel;html=1;align=center;verticalAlign=middle;resizable=0;points=[];" parent="_LFYc6KTlpvNx05L0n6W-19" vertex="1" connectable="0">
          <mxGeometry x="-0.2646" y="2" relative="1" as="geometry">
            <mxPoint as="offset" />
          </mxGeometry>
        </mxCell>
        <mxCell id="_LFYc6KTlpvNx05L0n6W-23" value="" style="edgeStyle=orthogonalEdgeStyle;rounded=0;orthogonalLoop=1;jettySize=auto;html=1;" parent="WIyWlLk6GJQsqaUBKTNV-1" source="_LFYc6KTlpvNx05L0n6W-13" target="_LFYc6KTlpvNx05L0n6W-22" edge="1">
          <mxGeometry relative="1" as="geometry" />
        </mxCell>
        <mxCell id="_LFYc6KTlpvNx05L0n6W-57" value="SI" style="edgeLabel;html=1;align=center;verticalAlign=middle;resizable=0;points=[];" parent="_LFYc6KTlpvNx05L0n6W-23" vertex="1" connectable="0">
          <mxGeometry x="0.0417" y="2" relative="1" as="geometry">
            <mxPoint as="offset" />
          </mxGeometry>
        </mxCell>
        <mxCell id="_LFYc6KTlpvNx05L0n6W-13" value="¿Segunda letra coincide con la primera vocal del apellido paterno?" style="rhombus;whiteSpace=wrap;html=1;rounded=1;" parent="WIyWlLk6GJQsqaUBKTNV-1" vertex="1">
          <mxGeometry x="324.5" y="890" width="187" height="80" as="geometry" />
        </mxCell>
        <mxCell id="_LFYc6KTlpvNx05L0n6W-18" style="edgeStyle=orthogonalEdgeStyle;rounded=0;orthogonalLoop=1;jettySize=auto;html=1;exitX=0.5;exitY=0;exitDx=0;exitDy=0;" parent="WIyWlLk6GJQsqaUBKTNV-1" edge="1">
          <mxGeometry relative="1" as="geometry">
            <mxPoint x="414" y="180" as="targetPoint" />
            <Array as="points">
              <mxPoint x="120" y="780" />
              <mxPoint x="120" y="180" />
              <mxPoint x="384" y="180" />
            </Array>
            <mxPoint x="124" y="780" as="sourcePoint" />
          </mxGeometry>
        </mxCell>
        <mxCell id="_LFYc6KTlpvNx05L0n6W-16" value="CURP incorrecta, solicitar rectificar datos" style="whiteSpace=wrap;html=1;rounded=1;" parent="WIyWlLk6GJQsqaUBKTNV-1" vertex="1">
          <mxGeometry x="90" y="780" width="120" height="60" as="geometry" />
        </mxCell>
        <mxCell id="_LFYc6KTlpvNx05L0n6W-24" style="edgeStyle=orthogonalEdgeStyle;rounded=0;orthogonalLoop=1;jettySize=auto;html=1;exitX=0;exitY=0.5;exitDx=0;exitDy=0;" parent="WIyWlLk6GJQsqaUBKTNV-1" source="_LFYc6KTlpvNx05L0n6W-22" edge="1">
          <mxGeometry relative="1" as="geometry">
            <mxPoint x="150" y="930" as="targetPoint" />
          </mxGeometry>
        </mxCell>
        <mxCell id="_LFYc6KTlpvNx05L0n6W-25" value="NO" style="edgeLabel;html=1;align=center;verticalAlign=middle;resizable=0;points=[];" parent="_LFYc6KTlpvNx05L0n6W-24" vertex="1" connectable="0">
          <mxGeometry x="-0.5433" y="-2" relative="1" as="geometry">
            <mxPoint as="offset" />
          </mxGeometry>
        </mxCell>
        <mxCell id="_LFYc6KTlpvNx05L0n6W-27" value="" style="edgeStyle=orthogonalEdgeStyle;rounded=0;orthogonalLoop=1;jettySize=auto;html=1;" parent="WIyWlLk6GJQsqaUBKTNV-1" source="_LFYc6KTlpvNx05L0n6W-22" target="_LFYc6KTlpvNx05L0n6W-26" edge="1">
          <mxGeometry relative="1" as="geometry" />
        </mxCell>
        <mxCell id="_LFYc6KTlpvNx05L0n6W-58" value="SI" style="edgeLabel;html=1;align=center;verticalAlign=middle;resizable=0;points=[];" parent="_LFYc6KTlpvNx05L0n6W-27" vertex="1" connectable="0">
          <mxGeometry x="-0.025" y="-3" relative="1" as="geometry">
            <mxPoint as="offset" />
          </mxGeometry>
        </mxCell>
        <mxCell id="_LFYc6KTlpvNx05L0n6W-22" value="¿Tercera letra coincide con primera letra del apellido materno?" style="rhombus;whiteSpace=wrap;html=1;rounded=1;" parent="WIyWlLk6GJQsqaUBKTNV-1" vertex="1">
          <mxGeometry x="324.5" y="1000" width="187" height="80" as="geometry" />
        </mxCell>
        <mxCell id="_LFYc6KTlpvNx05L0n6W-28" style="edgeStyle=orthogonalEdgeStyle;rounded=0;orthogonalLoop=1;jettySize=auto;html=1;exitX=0;exitY=0.5;exitDx=0;exitDy=0;" parent="WIyWlLk6GJQsqaUBKTNV-1" source="_LFYc6KTlpvNx05L0n6W-26" edge="1">
          <mxGeometry relative="1" as="geometry">
            <mxPoint x="154" y="1040" as="targetPoint" />
          </mxGeometry>
        </mxCell>
        <mxCell id="_LFYc6KTlpvNx05L0n6W-29" value="NO" style="edgeLabel;html=1;align=center;verticalAlign=middle;resizable=0;points=[];" parent="_LFYc6KTlpvNx05L0n6W-28" vertex="1" connectable="0">
          <mxGeometry x="-0.5074" y="3" relative="1" as="geometry">
            <mxPoint as="offset" />
          </mxGeometry>
        </mxCell>
        <mxCell id="_LFYc6KTlpvNx05L0n6W-31" value="" style="edgeStyle=orthogonalEdgeStyle;rounded=0;orthogonalLoop=1;jettySize=auto;html=1;" parent="WIyWlLk6GJQsqaUBKTNV-1" source="_LFYc6KTlpvNx05L0n6W-26" target="_LFYc6KTlpvNx05L0n6W-30" edge="1">
          <mxGeometry relative="1" as="geometry" />
        </mxCell>
        <mxCell id="_LFYc6KTlpvNx05L0n6W-59" value="SI" style="edgeLabel;html=1;align=center;verticalAlign=middle;resizable=0;points=[];" parent="_LFYc6KTlpvNx05L0n6W-31" vertex="1" connectable="0">
          <mxGeometry x="-0.0565" y="-1" relative="1" as="geometry">
            <mxPoint as="offset" />
          </mxGeometry>
        </mxCell>
        <mxCell id="_LFYc6KTlpvNx05L0n6W-26" value="¿Cuarta letra coincide con iicial del nombre?" style="rhombus;whiteSpace=wrap;html=1;rounded=1;" parent="WIyWlLk6GJQsqaUBKTNV-1" vertex="1">
          <mxGeometry x="324.5" y="1120" width="187" height="80" as="geometry" />
        </mxCell>
        <mxCell id="_LFYc6KTlpvNx05L0n6W-32" style="edgeStyle=orthogonalEdgeStyle;rounded=0;orthogonalLoop=1;jettySize=auto;html=1;exitX=0;exitY=0.5;exitDx=0;exitDy=0;" parent="WIyWlLk6GJQsqaUBKTNV-1" source="_LFYc6KTlpvNx05L0n6W-30" edge="1">
          <mxGeometry relative="1" as="geometry">
            <mxPoint x="154" y="1170" as="targetPoint" />
          </mxGeometry>
        </mxCell>
        <mxCell id="_LFYc6KTlpvNx05L0n6W-33" value="NO" style="edgeLabel;html=1;align=center;verticalAlign=middle;resizable=0;points=[];" parent="_LFYc6KTlpvNx05L0n6W-32" vertex="1" connectable="0">
          <mxGeometry x="-0.4537" y="-1" relative="1" as="geometry">
            <mxPoint as="offset" />
          </mxGeometry>
        </mxCell>
        <mxCell id="_LFYc6KTlpvNx05L0n6W-35" value="" style="edgeStyle=orthogonalEdgeStyle;rounded=0;orthogonalLoop=1;jettySize=auto;html=1;" parent="WIyWlLk6GJQsqaUBKTNV-1" source="_LFYc6KTlpvNx05L0n6W-30" target="_LFYc6KTlpvNx05L0n6W-34" edge="1">
          <mxGeometry relative="1" as="geometry" />
        </mxCell>
        <mxCell id="_LFYc6KTlpvNx05L0n6W-60" value="SI" style="edgeLabel;html=1;align=center;verticalAlign=middle;resizable=0;points=[];" parent="_LFYc6KTlpvNx05L0n6W-35" vertex="1" connectable="0">
          <mxGeometry x="-0.2522" y="3" relative="1" as="geometry">
            <mxPoint as="offset" />
          </mxGeometry>
        </mxCell>
        <mxCell id="_LFYc6KTlpvNx05L0n6W-30" value="¿Digitos del 5 al 10 coinciden con la fecha de nacimiento en formato AA/MM/DD?" style="rhombus;whiteSpace=wrap;html=1;rounded=1;" parent="WIyWlLk6GJQsqaUBKTNV-1" vertex="1">
          <mxGeometry x="271.75" y="1230" width="290.5" height="140" as="geometry" />
        </mxCell>
        <mxCell id="_LFYc6KTlpvNx05L0n6W-36" style="edgeStyle=orthogonalEdgeStyle;rounded=0;orthogonalLoop=1;jettySize=auto;html=1;exitX=0;exitY=0.5;exitDx=0;exitDy=0;" parent="WIyWlLk6GJQsqaUBKTNV-1" source="_LFYc6KTlpvNx05L0n6W-34" edge="1">
          <mxGeometry relative="1" as="geometry">
            <mxPoint x="154" y="1300" as="targetPoint" />
          </mxGeometry>
        </mxCell>
        <mxCell id="_LFYc6KTlpvNx05L0n6W-37" value="NO" style="edgeLabel;html=1;align=center;verticalAlign=middle;resizable=0;points=[];" parent="_LFYc6KTlpvNx05L0n6W-36" vertex="1" connectable="0">
          <mxGeometry x="-0.4731" y="2" relative="1" as="geometry">
            <mxPoint as="offset" />
          </mxGeometry>
        </mxCell>
        <mxCell id="_LFYc6KTlpvNx05L0n6W-42" value="" style="edgeStyle=orthogonalEdgeStyle;rounded=0;orthogonalLoop=1;jettySize=auto;html=1;" parent="WIyWlLk6GJQsqaUBKTNV-1" source="_LFYc6KTlpvNx05L0n6W-34" target="_LFYc6KTlpvNx05L0n6W-41" edge="1">
          <mxGeometry relative="1" as="geometry" />
        </mxCell>
        <mxCell id="_LFYc6KTlpvNx05L0n6W-61" value="SI" style="edgeLabel;html=1;align=center;verticalAlign=middle;resizable=0;points=[];" parent="_LFYc6KTlpvNx05L0n6W-42" vertex="1" connectable="0">
          <mxGeometry x="0.0083" relative="1" as="geometry">
            <mxPoint as="offset" />
          </mxGeometry>
        </mxCell>
        <mxCell id="_LFYc6KTlpvNx05L0n6W-34" value="¿decimoprimer digito es una letra y coincide con el genero?" style="rhombus;whiteSpace=wrap;html=1;rounded=1;" parent="WIyWlLk6GJQsqaUBKTNV-1" vertex="1">
          <mxGeometry x="317" y="1410" width="202" height="90" as="geometry" />
        </mxCell>
        <mxCell id="_LFYc6KTlpvNx05L0n6W-40" value="" style="edgeStyle=orthogonalEdgeStyle;rounded=0;orthogonalLoop=1;jettySize=auto;html=1;" parent="WIyWlLk6GJQsqaUBKTNV-1" source="_LFYc6KTlpvNx05L0n6W-38" target="_LFYc6KTlpvNx05L0n6W-9" edge="1">
          <mxGeometry relative="1" as="geometry" />
        </mxCell>
        <mxCell id="_LFYc6KTlpvNx05L0n6W-38" value="Se solicita genero" style="whiteSpace=wrap;html=1;rounded=1;" parent="WIyWlLk6GJQsqaUBKTNV-1" vertex="1">
          <mxGeometry x="353" y="580" width="120" height="60" as="geometry" />
        </mxCell>
        <mxCell id="_LFYc6KTlpvNx05L0n6W-43" style="edgeStyle=orthogonalEdgeStyle;rounded=0;orthogonalLoop=1;jettySize=auto;html=1;exitX=0;exitY=0.5;exitDx=0;exitDy=0;" parent="WIyWlLk6GJQsqaUBKTNV-1" source="_LFYc6KTlpvNx05L0n6W-41" edge="1">
          <mxGeometry relative="1" as="geometry">
            <mxPoint x="160" y="1460" as="targetPoint" />
          </mxGeometry>
        </mxCell>
        <mxCell id="_LFYc6KTlpvNx05L0n6W-44" value="NO" style="edgeLabel;html=1;align=center;verticalAlign=middle;resizable=0;points=[];" parent="_LFYc6KTlpvNx05L0n6W-43" vertex="1" connectable="0">
          <mxGeometry x="-0.3875" y="-1" relative="1" as="geometry">
            <mxPoint as="offset" />
          </mxGeometry>
        </mxCell>
        <mxCell id="_LFYc6KTlpvNx05L0n6W-46" value="" style="edgeStyle=orthogonalEdgeStyle;rounded=0;orthogonalLoop=1;jettySize=auto;html=1;" parent="WIyWlLk6GJQsqaUBKTNV-1" source="_LFYc6KTlpvNx05L0n6W-41" target="_LFYc6KTlpvNx05L0n6W-45" edge="1">
          <mxGeometry relative="1" as="geometry" />
        </mxCell>
        <mxCell id="_LFYc6KTlpvNx05L0n6W-62" value="SI" style="edgeLabel;html=1;align=center;verticalAlign=middle;resizable=0;points=[];" parent="_LFYc6KTlpvNx05L0n6W-46" vertex="1" connectable="0">
          <mxGeometry x="-0.1083" relative="1" as="geometry">
            <mxPoint as="offset" />
          </mxGeometry>
        </mxCell>
        <mxCell id="_LFYc6KTlpvNx05L0n6W-41" value="¿decimocuarto digito es la primera consonante interna del apellido paterno?" style="rhombus;whiteSpace=wrap;html=1;rounded=1;" parent="WIyWlLk6GJQsqaUBKTNV-1" vertex="1">
          <mxGeometry x="317" y="1540" width="202" height="90" as="geometry" />
        </mxCell>
        <mxCell id="_LFYc6KTlpvNx05L0n6W-47" style="edgeStyle=orthogonalEdgeStyle;rounded=0;orthogonalLoop=1;jettySize=auto;html=1;exitX=0;exitY=0.5;exitDx=0;exitDy=0;" parent="WIyWlLk6GJQsqaUBKTNV-1" source="_LFYc6KTlpvNx05L0n6W-45" edge="1">
          <mxGeometry relative="1" as="geometry">
            <mxPoint x="160" y="1590" as="targetPoint" />
          </mxGeometry>
        </mxCell>
        <mxCell id="_LFYc6KTlpvNx05L0n6W-64" value="NO" style="edgeLabel;html=1;align=center;verticalAlign=middle;resizable=0;points=[];" parent="_LFYc6KTlpvNx05L0n6W-47" vertex="1" connectable="0">
          <mxGeometry x="-0.5931" relative="1" as="geometry">
            <mxPoint x="1" as="offset" />
          </mxGeometry>
        </mxCell>
        <mxCell id="_LFYc6KTlpvNx05L0n6W-49" value="" style="edgeStyle=orthogonalEdgeStyle;rounded=0;orthogonalLoop=1;jettySize=auto;html=1;" parent="WIyWlLk6GJQsqaUBKTNV-1" source="_LFYc6KTlpvNx05L0n6W-45" target="_LFYc6KTlpvNx05L0n6W-48" edge="1">
          <mxGeometry relative="1" as="geometry" />
        </mxCell>
        <mxCell id="_LFYc6KTlpvNx05L0n6W-63" value="SI" style="edgeLabel;html=1;align=center;verticalAlign=middle;resizable=0;points=[];" parent="_LFYc6KTlpvNx05L0n6W-49" vertex="1" connectable="0">
          <mxGeometry x="-0.0917" y="4" relative="1" as="geometry">
            <mxPoint as="offset" />
          </mxGeometry>
        </mxCell>
        <mxCell id="_LFYc6KTlpvNx05L0n6W-45" value="¿decimoquinto digito es la primera consonante interna del apellido materno?" style="rhombus;whiteSpace=wrap;html=1;rounded=1;" parent="WIyWlLk6GJQsqaUBKTNV-1" vertex="1">
          <mxGeometry x="317" y="1664" width="202" height="90" as="geometry" />
        </mxCell>
        <mxCell id="_LFYc6KTlpvNx05L0n6W-50" style="edgeStyle=orthogonalEdgeStyle;rounded=0;orthogonalLoop=1;jettySize=auto;html=1;exitX=0;exitY=0.5;exitDx=0;exitDy=0;" parent="WIyWlLk6GJQsqaUBKTNV-1" source="_LFYc6KTlpvNx05L0n6W-48" edge="1">
          <mxGeometry relative="1" as="geometry">
            <mxPoint x="160" y="1710" as="targetPoint" />
          </mxGeometry>
        </mxCell>
        <mxCell id="_LFYc6KTlpvNx05L0n6W-65" value="NO" style="edgeLabel;html=1;align=center;verticalAlign=middle;resizable=0;points=[];" parent="_LFYc6KTlpvNx05L0n6W-50" vertex="1" connectable="0">
          <mxGeometry x="-0.6133" y="1" relative="1" as="geometry">
            <mxPoint x="-1" as="offset" />
          </mxGeometry>
        </mxCell>
        <mxCell id="_LFYc6KTlpvNx05L0n6W-67" value="" style="edgeStyle=orthogonalEdgeStyle;rounded=0;orthogonalLoop=1;jettySize=auto;html=1;" parent="WIyWlLk6GJQsqaUBKTNV-1" source="_LFYc6KTlpvNx05L0n6W-48" edge="1">
          <mxGeometry relative="1" as="geometry">
            <mxPoint x="418" y="1900" as="targetPoint" />
          </mxGeometry>
        </mxCell>
        <mxCell id="_LFYc6KTlpvNx05L0n6W-48" value="¿decimosexto digito es la primera consonante interna del primer nombre?" style="rhombus;whiteSpace=wrap;html=1;rounded=1;" parent="WIyWlLk6GJQsqaUBKTNV-1" vertex="1">
          <mxGeometry x="316" y="1780" width="202" height="90" as="geometry" />
        </mxCell>
        <mxCell id="_LFYc6KTlpvNx05L0n6W-71" value="" style="edgeStyle=orthogonalEdgeStyle;rounded=0;orthogonalLoop=1;jettySize=auto;html=1;" parent="WIyWlLk6GJQsqaUBKTNV-1" target="_LFYc6KTlpvNx05L0n6W-70" edge="1">
          <mxGeometry relative="1" as="geometry">
            <mxPoint x="418" y="2080" as="sourcePoint" />
          </mxGeometry>
        </mxCell>
        <mxCell id="_LFYc6KTlpvNx05L0n6W-70" value="FIN" style="ellipse;whiteSpace=wrap;html=1;rounded=1;" parent="WIyWlLk6GJQsqaUBKTNV-1" vertex="1">
          <mxGeometry x="378" y="2120" width="80" height="80" as="geometry" />
        </mxCell>
        <mxCell id="kk-J_OgDcgDQutZlzz3X-0" value="Se registra secretaria" style="shape=cylinder3;whiteSpace=wrap;html=1;boundedLbl=1;backgroundOutline=1;size=15;" vertex="1" parent="WIyWlLk6GJQsqaUBKTNV-1">
          <mxGeometry x="390" y="2000" width="60" height="80" as="geometry" />
        </mxCell>
        <mxCell id="kk-J_OgDcgDQutZlzz3X-2" value="" style="edgeStyle=orthogonalEdgeStyle;rounded=0;orthogonalLoop=1;jettySize=auto;html=1;" edge="1" parent="WIyWlLk6GJQsqaUBKTNV-1" source="kk-J_OgDcgDQutZlzz3X-1" target="kk-J_OgDcgDQutZlzz3X-0">
          <mxGeometry relative="1" as="geometry" />
        </mxCell>
        <mxCell id="kk-J_OgDcgDQutZlzz3X-1" value="Se presiona botón de guardar" style="rounded=1;whiteSpace=wrap;html=1;" vertex="1" parent="WIyWlLk6GJQsqaUBKTNV-1">
          <mxGeometry x="360" y="1900" width="120" height="60" as="geometry" />
        </mxCell>
      </root>
    </mxGraphModel>
  </diagram>
</mxfile>
